<?xml version="1.0" encoding="utf-8"?>
<!-- Generator: Adobe Illustrator 17.0.0, SVG Export Plug-In . SVG Version: 6.00 Build 0)  -->
<!DOCTYPE svg PUBLIC "-//W3C//DTD SVG 1.1//EN" "http://www.w3.org/Graphics/SVG/1.1/DTD/svg11.dtd">
<svg version="1.1" xmlns="http://www.w3.org/2000/svg" xmlns:xlink="http://www.w3.org/1999/xlink" x="0px" y="0px" width="74px"
	 height="74px" viewBox="0 0 74 74" enable-background="new 0 0 74 74" xml:space="preserve">
<g id="Layer_2">
	<path fill="#000A8B" d="M31.98,18.735c-0.883,0-1.662,0.415-2.351,1.123c-0.017,0.016-0.039,0.022-0.055,0.039
		c-5.123,5.413-9.993,8.044-14.889,8.044H9.555c-3.766,0-6.829,3.063-6.829,6.829v4.463c0,3.766,3.063,6.829,6.829,6.829h5.131
		c4.899,0,9.768,2.629,14.883,8.038c0.003,0.003,0.01,0.011,0.011,0.012c0.016,0.016,0.037,0.022,0.053,0.037
		c0.688,0.706,1.466,1.119,2.348,1.119c4.309,0,6.271-9.469,6.271-18.266S36.289,18.735,31.98,18.735z M31.98,52.767
		c-1.128,0-3.771-5.364-3.771-15.766s2.643-15.766,3.771-15.766s3.771,5.364,3.771,15.766S33.108,52.767,31.98,52.767z"/>
	<polygon fill="#000A8B" points="70.908,25.095 69.141,23.328 57.236,35.233 45.331,23.328 43.563,25.095 55.468,37 43.563,48.905 
		45.331,50.673 57.236,38.768 69.141,50.673 70.908,48.905 59.003,37 	"/>
</g>
<g id="tag">
</g>
</svg>
