<?xml version="1.0" encoding="utf-8"?>
<!-- Generator: Adobe Illustrator 17.0.0, SVG Export Plug-In . SVG Version: 6.00 Build 0)  -->
<!DOCTYPE svg PUBLIC "-//W3C//DTD SVG 1.1//EN" "http://www.w3.org/Graphics/SVG/1.1/DTD/svg11.dtd">
<svg version="1.1" id="Layer_2" xmlns="http://www.w3.org/2000/svg" xmlns:xlink="http://www.w3.org/1999/xlink" x="0px" y="0px"
	 width="74px" height="74px" viewBox="0 0 74 74" enable-background="new 0 0 74 74" xml:space="preserve">
<path fill="#000A8B" d="M47.59,36.999c0,0.892-0.133,1.763-0.349,2.607l2.001,2.001c0.55-1.453,0.848-3.011,0.848-4.608
	c0-5.025-2.933-9.667-7.472-11.826l-1.073,2.258C45.217,29.177,47.59,32.933,47.59,36.999z"/>
<path fill="#000A8B" d="M30.551,22.916c0.541-1.111,1.065-1.682,1.43-1.682c0.688,0,1.937,2.005,2.808,5.919l3.059,3.059
	c-0.772-6.274-2.674-11.478-5.867-11.478c-0.883,0-1.662,0.415-2.351,1.123c-0.017,0.016-0.039,0.022-0.055,0.039
	c-0.338,0.357-0.675,0.7-1.01,1.033L30.551,22.916z"/>
<path fill="#000A8B" d="M68.774,37c0,6.654-2.13,13.023-5.844,18.296l1.797,1.797c4.161-5.755,6.547-12.766,6.547-20.093
	c0.001-13.161-7.678-25.317-19.564-30.969l-1.073,2.258C61.656,13.528,68.775,24.798,68.774,37z"/>
<path fill="#000A8B" d="M58.121,36.998c0,3.786-1.041,7.431-2.885,10.602l1.825,1.825c2.276-3.675,3.561-7.966,3.561-12.427
	c0.001-9.067-5.292-17.444-13.483-21.341l-1.074,2.258C53.389,21.4,58.122,28.89,58.121,36.998z"/>
<path fill="#000A8B" d="M43.214,45.548c-0.524,0.383-1.072,0.737-1.669,1.021l1.073,2.258c0.859-0.409,1.66-0.907,2.396-1.479
	L43.214,45.548z"/>
<path fill="#000A8B" d="M35.735,38.069c-0.175,9.691-2.666,14.698-3.754,14.698c-1.128,0-3.771-5.364-3.771-15.766
	c0-2.287,0.133-4.316,0.344-6.112l-5.515-5.515c-2.81,1.719-5.577,2.567-8.353,2.567H9.555c-3.766,0-6.829,3.063-6.829,6.829v4.463
	c0,3.766,3.063,6.829,6.829,6.829h5.131c4.899,0,9.768,2.629,14.883,8.038c0.003,0.003,0.01,0.011,0.011,0.012
	c0.016,0.016,0.037,0.022,0.053,0.037c0.688,0.706,1.466,1.119,2.348,1.119c3.742,0,5.712-7.144,6.166-14.786L35.735,38.069z"/>
<path fill="#000A8B" d="M58.259,60.594c-2.252,2.041-4.808,3.777-7.623,5.116l1.074,2.258c3.076-1.463,5.863-3.369,8.315-5.608
	L58.259,60.594z"/>
<path fill="#000A8B" d="M50.712,53.046c-1.394,1.198-2.947,2.23-4.647,3.038l1.073,2.258c1.961-0.933,3.751-2.128,5.347-3.523
	L50.712,53.046z"/>
<g>
	
		<rect x="-0.769" y="35.751" transform="matrix(0.7071 0.7071 -0.7071 0.7071 37.7768 -17.1998)" fill="#000A8B" width="80.839" height="2.5"/>
</g>
</svg>
